<svg width="60" height="60" viewBox="0 0 60 60" fill="none" xmlns="http://www.w3.org/2000/svg">
<g id="devices" clip-path="url(#clip0_1_44)">
<g id="Group">
<path id="Vector" d="M22.3077 36.7308H3.84615V9.03846C3.84615 7.40636 4.4945 5.8411 5.64857 4.68703C6.80263 3.53296 8.36789 2.88461 9.99999 2.88461H46.9231C48.5552 2.88461 50.1204 3.53296 51.2745 4.68703C52.4286 5.8411 53.0769 7.40636 53.0769 9.03846V15.1923" stroke="black" stroke-width="2" stroke-linecap="round" stroke-linejoin="round"/>
<path id="Vector_2" d="M-2.30769 45.9615H34.6154" stroke="black" stroke-width="2" stroke-linecap="round" stroke-linejoin="round"/>
<path id="Vector_3" d="M34.6154 18.8846C34.6154 16.8446 36.4523 15.1923 38.7169 15.1923H55.1292C57.3938 15.1923 59.2308 16.8446 59.2308 18.8846V48.4231C59.2308 50.4631 57.3938 52.1154 55.1292 52.1154H38.7169C36.4523 52.1154 34.6154 50.4631 34.6154 48.4231V18.8846Z" stroke="black" stroke-width="2" stroke-linecap="round" stroke-linejoin="round"/>
<path id="Vector_4" d="M46.9231 42.8846H46.9538" stroke="black" stroke-width="2" stroke-linecap="round" stroke-linejoin="round"/>
</g>
</g>
<defs>
<clipPath id="clip0_1_44">
<rect width="60" height="60" fill="white"/>
</clipPath>
</defs>
</svg>
