<svg width="64" height="64" viewBox="0 0 64 64" fill="none" xmlns="http://www.w3.org/2000/svg">
<g id="person">
<g id="Group">
<path id="Vector" d="M32 32C39.3638 32 45.3333 26.0305 45.3333 18.6667C45.3333 11.3029 39.3638 5.33334 32 5.33334C24.6362 5.33334 18.6667 11.3029 18.6667 18.6667C18.6667 26.0305 24.6362 32 32 32Z" stroke="black" stroke-width="2"/>
<path id="Vector_2" d="M45.3333 37.3333H46.272C48.2215 37.3339 50.1038 38.0463 51.5651 39.3368C53.0264 40.6272 53.9663 42.4068 54.208 44.3413L55.2507 52.672C55.3445 53.4225 55.2775 54.1843 55.0544 54.907C54.8312 55.6296 54.4569 56.2965 53.9563 56.8635C53.4557 57.4304 52.8403 57.8844 52.1508 58.1952C51.4614 58.5061 50.7137 58.6668 49.9573 58.6667H14.0427C13.2864 58.6668 12.5387 58.5061 11.8492 58.1952C11.1597 57.8844 10.5443 57.4304 10.0437 56.8635C9.54307 56.2965 9.16877 55.6296 8.94562 54.907C8.72246 54.1843 8.65555 53.4225 8.74934 52.672L9.78934 44.3413C10.0312 42.4059 10.9718 40.6256 12.4342 39.335C13.8967 38.0444 15.7802 37.3326 17.7307 37.3333H18.6667" stroke="black" stroke-width="2" stroke-linecap="round" stroke-linejoin="round"/>
</g>
</g>
</svg>
