<svg width="44" height="42" viewBox="0 0 44 42" fill="none" xmlns="http://www.w3.org/2000/svg">
<g id="Group">
<path id="Vector" d="M1 5.43333H10.3333M43 5.43333H19.6667M1 20.95H29M43 20.95H38.3333M1 36.4667H5.66667M43 36.4667H15" stroke="black" stroke-width="2" stroke-linecap="round"/>
<path id="Vector_2" d="M15 9.86667C17.5773 9.86667 19.6667 7.8818 19.6667 5.43333C19.6667 2.98487 17.5773 1 15 1C12.4227 1 10.3333 2.98487 10.3333 5.43333C10.3333 7.8818 12.4227 9.86667 15 9.86667Z" stroke="black" stroke-width="2" stroke-linecap="round"/>
<path id="Vector_3" d="M33.6667 25.3833C36.244 25.3833 38.3333 23.3985 38.3333 20.95C38.3333 18.5015 36.244 16.5167 33.6667 16.5167C31.0893 16.5167 29 18.5015 29 20.95C29 23.3985 31.0893 25.3833 33.6667 25.3833Z" stroke="black" stroke-width="2" stroke-linecap="round"/>
<path id="Vector_4" d="M10.3333 40.9C12.9107 40.9 15 38.9151 15 36.4667C15 34.0182 12.9107 32.0333 10.3333 32.0333C7.75601 32.0333 5.66667 34.0182 5.66667 36.4667C5.66667 38.9151 7.75601 40.9 10.3333 40.9Z" stroke="black" stroke-width="2" stroke-linecap="round"/>
</g>
</svg>
